<svg xmlns="http://www.w3.org/2000/svg" xmlns:xlink="http://www.w3.org/1999/xlink" contentStyleType="text/css" data-diagram-type="CLASS" height="271px" preserveAspectRatio="none" style="width:309px;height:271px;background:#FFFFFF;" version="1.1" viewBox="0 0 309 271" width="309px" zoomAndPan="magnify"><defs/><g><!--class it.unimi.di.prog2.temisvolti.filesystem.Shell--><g class="entity" data-entity="it.unimi.di.prog2.temisvolti.filesystem.Shell" data-source-line="13" data-uid="ent0002" id="entity_it.unimi.di.prog2.temisvolti.filesystem.Shell"><a href="Shell.html" target="_top" title="Shell.html" xlink:actuate="onRequest" xlink:href="Shell.html" xlink:show="new" xlink:title="Shell.html" xlink:type="simple"><rect fill="#F1F1F1" height="230.2992" rx="2.5" ry="2.5" style="stroke:#181818;stroke-width:0.5;" width="296.2409" x="6" y="12"/><ellipse cx="61.4805" cy="33.344" fill="#ADD1B2" rx="11" ry="11" style="stroke:#181818;stroke-width:1;"/><path d="M64.4493,38.9846 Q63.8712,39.2815 63.2305,39.4221 Q62.5899,39.5783 61.8868,39.5783 Q59.3868,39.5783 58.0587,37.9377 Q56.7462,36.2815 56.7462,33.1565 Q56.7462,30.0315 58.0587,28.3752 Q59.3868,26.719 61.8868,26.719 Q62.5899,26.719 63.2305,26.8752 Q63.8868,27.0315 64.4493,27.3283 L64.4493,30.0471 Q63.8243,29.469 63.2305,29.2033 Q62.6368,28.9221 62.0118,28.9221 Q60.668,28.9221 59.9805,30.0002 Q59.293,31.0627 59.293,33.1565 Q59.293,35.2502 59.9805,36.3283 Q60.668,37.3908 62.0118,37.3908 Q62.6368,37.3908 63.2305,37.1252 Q63.8243,36.844 64.4493,36.2658 L64.4493,38.9846 Z " fill="#000000"/><text fill="#000000" font-family="sans-serif" font-size="14" lengthAdjust="spacing" textLength="31.4579" x="154.6415" y="31.9659">Shell</text><text fill="#000000" font-family="sans-serif" font-size="10" lengthAdjust="spacing" textLength="176.7799" x="81.9805" y="46.7579">it.unimi.di.prog2.temisvolti.filesystem</text><line style="stroke:#181818;stroke-width:0.5;" x1="7" x2="301.2409" y1="54.6879" y2="54.6879"/><rect fill="none" height="6" style="stroke:#C82930;stroke-width:1;" width="6" x="14" y="66.7219"/><text fill="#000000" font-family="sans-serif" font-size="14" lengthAdjust="spacing" text-decoration="underline" textLength="91.9657" x="26" y="73.6538">PREFIX: String</text><rect fill="none" height="6" style="stroke:#C82930;stroke-width:1;" width="6" x="14" y="85.7898"/><text fill="#000000" font-family="sans-serif" font-size="14" lengthAdjust="spacing" textLength="88.8717" x="26" y="92.7218">fs: FileSystem</text><rect fill="none" height="6" style="stroke:#C82930;stroke-width:1;" width="6" x="14" y="104.8577"/><text fill="#000000" font-family="sans-serif" font-size="14" lengthAdjust="spacing" textLength="63.7558" x="26" y="111.7897">cwd: Path</text><line style="stroke:#181818;stroke-width:0.5;" x1="7" x2="301.2409" y1="119.8917" y2="119.8917"/><ellipse cx="17" cy="134.9256" fill="#84BE84" rx="3" ry="3" style="stroke:#038048;stroke-width:1;"/><text fill="#000000" font-family="sans-serif" font-size="14" lengthAdjust="spacing" textLength="109.8156" x="26" y="138.8576">Shell(FileSystem)</text><rect fill="#F24D5C" height="6" style="stroke:#C82930;stroke-width:1;" width="6" x="14" y="150.9935"/><text fill="#000000" font-family="sans-serif" font-size="14" lengthAdjust="spacing" textLength="132.6915" x="26" y="157.9255">resolve(String): Path</text><rect fill="#F24D5C" height="6" style="stroke:#C82930;stroke-width:1;" width="6" x="14" y="170.0614"/><text fill="#000000" font-family="sans-serif" font-size="14" lengthAdjust="spacing" text-decoration="underline" textLength="240.5751" x="26" y="176.9934">recursiveTree(String, Directory): void</text><rect fill="#F24D5C" height="6" style="stroke:#C82930;stroke-width:1;" width="6" x="14" y="189.1294"/><text fill="#000000" font-family="sans-serif" font-size="14" lengthAdjust="spacing" textLength="100.2536" x="26" y="196.0613">tree(Path): void</text><ellipse cx="17" cy="211.1973" fill="#84BE84" rx="3" ry="3" style="stroke:#038048;stroke-width:1;"/><text fill="#000000" font-family="sans-serif" font-size="14" lengthAdjust="spacing" textLength="270.2409" x="26" y="215.1293">interpreter(BufferedReader): List&lt;String&gt;</text><ellipse cx="17" cy="230.2652" fill="#84BE84" rx="3" ry="3" style="stroke:#038048;stroke-width:1;"/><text fill="#000000" font-family="sans-serif" font-size="14" lengthAdjust="spacing" text-decoration="underline" textLength="125.4115" x="26" y="234.1972">main(String[]): void</text></a></g><g class="footer" data-source-line="31"><text fill="#888888" font-family="sans-serif" font-size="10" lengthAdjust="spacing" textLength="2.6" x="149.2" y="246.69">&#160;</text><a href="https://github.com/talsma-ict/umldoclet" target="_top" title="https://github.com/talsma-ict/umldoclet" xlink:actuate="onRequest" xlink:href="https://github.com/talsma-ict/umldoclet" xlink:show="new" xlink:title="https://github.com/talsma-ict/umldoclet" xlink:type="simple"><text fill="#888888" font-family="sans-serif" font-size="10" lengthAdjust="spacing" textLength="76.7199" x="112.14" y="260.31">UMLDoclet 2.2.3</text></a></g><!--SRC=[ZLDHJzim47xdLzpOmufAtIIiPKG8YHNOc3e9jKMQLFfWaajYuTYPVIdA4FzzJbAQhjl3_938TzzztsVx3W3W0qnqKHcHPWIaWJ9XuVxx5BYA8KM5XXF687AUeeL7b5gbjWKYy98oRK0dpIxIng0jj8g5Ik4RNtEmkZGHMdPm08tKuetzcTiTziUg3bxfI291RtAqOodm_F4Wy88HBBYqEOVRoO9jsBgQW0Ni11ot514gwoXB5QDfR5qMF7A_QPivXZKQAxHoDTw6fpvgf1LneImKt92jZtGdkQBQgyzgVNOAlSlvz4zltbdZxHWkZU9b33FzizmUzrrXUEeSIrxfai3cI5pnDcUTQSLpTrqymZawKKxk9fLMsEGp4IDWNb05YK0Ps_se8ykq2pVnI79huV3SYbyO-XylvXbA-Q0sU-z242kLo0MB1IkCJWD6c0kxrf84IuH4MraNEGJtAl-9POq6B9VDdsMKozKANXexzNgnn4b4hp2ucrtVtFu8OKx6zSKMC4Xi23UERzxmTV7eEGxXZbEs3VKRZLu7FkhGhkEqN6ElPJ_Qg-nS68nAz-vhN1XyGn_3bN1nT_6LArnh4NUyLCDghlrCNoX2KnXqtzxdCadGO3n3xjhDGQV2qddBVl6tYtxkMcmZlbpjCh-s3tbkgPBOLIPQEvcTQwtNrwf0CnNgQQAbwvdtd_wTlQydG0g5RkYY9uMkGxmjyhML6-xeRRGUr7AP4HKs70vJGLdvo2AT3wcPle68Q5ZcCcx7Rcy0LwlDG7tPJdOz7GFV6tZ1mX-5evFmv8oDJySZtpyRZ_jU47hUyheqki3XJEUu-Wq0]--></g></svg>