<svg xmlns="http://www.w3.org/2000/svg" xmlns:xlink="http://www.w3.org/1999/xlink" contentStyleType="text/css" data-diagram-type="CLASS" height="396px" preserveAspectRatio="none" style="width:291px;height:396px;background:#FFFFFF;" version="1.1" viewBox="0 0 291 396" width="291px" zoomAndPan="magnify"><defs/><g><!--class it.unimi.di.prog2.temisvolti.bancarelle.Acquisto--><g class="entity" data-entity="it.unimi.di.prog2.temisvolti.bancarelle.Acquisto" data-source-line="13" data-uid="ent0002" id="entity_it.unimi.di.prog2.temisvolti.bancarelle.Acquisto"><a href="Acquisto.html" target="_top" title="Acquisto.html" xlink:actuate="onRequest" xlink:href="Acquisto.html" xlink:show="new" xlink:title="Acquisto.html" xlink:type="simple"><rect fill="#F1F1F1" height="249.3671" rx="2.5" ry="2.5" style="stroke:#181818;stroke-width:0.5;" width="278.069" x="6" y="118"/><ellipse cx="51.6946" cy="139.344" fill="#ADD1B2" rx="11" ry="11" style="stroke:#181818;stroke-width:1;"/><path d="M54.6633,144.9846 Q54.0852,145.2815 53.4446,145.4221 Q52.8039,145.5783 52.1008,145.5783 Q49.6008,145.5783 48.2727,143.9377 Q46.9602,142.2815 46.9602,139.1565 Q46.9602,136.0315 48.2727,134.3752 Q49.6008,132.719 52.1008,132.719 Q52.8039,132.719 53.4446,132.8752 Q54.1008,133.0315 54.6633,133.3283 L54.6633,136.0471 Q54.0383,135.469 53.4446,135.2033 Q52.8508,134.9221 52.2258,134.9221 Q50.8821,134.9221 50.1946,136.0002 Q49.5071,137.0627 49.5071,139.1565 Q49.5071,141.2502 50.1946,142.3283 Q50.8821,143.3908 52.2258,143.3908 Q52.8508,143.3908 53.4446,143.1252 Q54.0383,142.844 54.6633,142.2658 L54.6633,144.9846 Z " fill="#000000"/><text fill="#000000" font-family="sans-serif" font-size="14" lengthAdjust="spacing" textLength="56.7698" x="132.8996" y="137.9659">Acquisto</text><text fill="#000000" font-family="sans-serif" font-size="10" lengthAdjust="spacing" textLength="178.1799" x="72.1946" y="152.7579">it.unimi.di.prog2.temisvolti.bancarelle</text><line style="stroke:#181818;stroke-width:0.5;" x1="7" x2="283.069" y1="160.6879" y2="160.6879"/><ellipse cx="17" cy="175.7219" fill="none" rx="3" ry="3" style="stroke:#038048;stroke-width:1;"/><text fill="#000000" font-family="sans-serif" font-size="14" lengthAdjust="spacing" textLength="140.8255" x="26" y="179.6538">giocattolo: Giocattolo</text><rect fill="none" height="6" style="stroke:#C82930;stroke-width:1;" width="6" x="14" y="191.7898"/><text fill="#000000" font-family="sans-serif" font-size="14" lengthAdjust="spacing" textLength="252.069" x="26" y="198.7218">descrizione: Map&lt;Bancarella, Integer&gt;</text><rect fill="none" height="6" style="stroke:#C82930;stroke-width:1;" width="6" x="14" y="210.8577"/><text fill="#000000" font-family="sans-serif" font-size="14" lengthAdjust="spacing" textLength="68.6277" x="26" y="217.7897">prezzo: int</text><rect fill="none" height="6" style="stroke:#C82930;stroke-width:1;" width="6" x="14" y="229.9256"/><text fill="#000000" font-family="sans-serif" font-size="14" lengthAdjust="spacing" textLength="80.0517" x="26" y="236.8576">quantit&#224;: int</text><line style="stroke:#181818;stroke-width:0.5;" x1="7" x2="283.069" y1="244.9596" y2="244.9596"/><ellipse cx="17" cy="259.9935" fill="#84BE84" rx="3" ry="3" style="stroke:#038048;stroke-width:1;"/><text fill="#000000" font-family="sans-serif" font-size="14" lengthAdjust="spacing" textLength="132.6775" x="26" y="263.9255">Acquisto(Giocattolo)</text><ellipse cx="17" cy="279.0614" fill="#84BE84" rx="3" ry="3" style="stroke:#038048;stroke-width:1;"/><text fill="#000000" font-family="sans-serif" font-size="14" lengthAdjust="spacing" textLength="195.4532" x="26" y="282.9934">aggiungi(int, Bancarella): void</text><ellipse cx="17" cy="298.1294" fill="#84BE84" rx="3" ry="3" style="stroke:#038048;stroke-width:1;"/><text fill="#000000" font-family="sans-serif" font-size="14" lengthAdjust="spacing" textLength="77.0277" x="26" y="302.0613">prezzo(): int</text><ellipse cx="17" cy="317.1973" fill="#84BE84" rx="3" ry="3" style="stroke:#038048;stroke-width:1;"/><text fill="#000000" font-family="sans-serif" font-size="14" lengthAdjust="spacing" textLength="88.4517" x="26" y="321.1293">quantit&#224;(): int</text><ellipse cx="17" cy="336.2652" fill="#84BE84" rx="3" ry="3" style="stroke:#038048;stroke-width:1;"/><text fill="#000000" font-family="sans-serif" font-size="14" lengthAdjust="spacing" textLength="157.3874" x="26" y="340.1972">quantit&#224;(Bancarella): int</text><ellipse cx="17" cy="355.3331" fill="#84BE84" rx="3" ry="3" style="stroke:#038048;stroke-width:1;"/><text fill="#000000" font-family="sans-serif" font-size="14" lengthAdjust="spacing" textLength="200.8853" x="26" y="359.2651">iterator(): Iterator&lt;Bancarella&gt;</text></a></g><!--class java.lang.Iterable--><g class="entity" data-entity="java.lang.Iterable" data-source-line="26" data-uid="ent0003" id="entity_java.lang.Iterable"><a href="https://docs.oracle.com/en/java/javase/25/docs/api/java.base/java/lang/Iterable.html?is-external=true" target="_top" title="https://docs.oracle.com/en/java/javase/25/docs/api/java.base/java/lang/Iterable.html?is-external=true" xlink:actuate="onRequest" xlink:href="https://docs.oracle.com/en/java/javase/25/docs/api/java.base/java/lang/Iterable.html?is-external=true" xlink:show="new" xlink:title="https://docs.oracle.com/en/java/javase/25/docs/api/java.base/java/lang/Iterable.html?is-external=true" xlink:type="simple"><rect fill="#F1F1F1" height="69.7558" rx="2.5" ry="2.5" style="stroke:#181818;stroke-width:0.5;" width="159.0415" x="65.5" y="12"/><ellipse cx="88.4449" cy="33.344" fill="#B4A7E5" rx="11" ry="11" style="stroke:#181818;stroke-width:1;"/><path d="M84.3667,29.1096 L84.3667,26.9533 L91.7574,26.9533 L91.7574,29.1096 L89.2886,29.1096 L89.2886,37.1877 L91.7574,37.1877 L91.7574,39.344 L84.3667,39.344 L84.3667,37.1877 L86.8355,37.1877 L86.8355,29.1096 L84.3667,29.1096 Z " fill="#000000"/><text fill="#000000" font-family="sans-serif" font-size="14" font-style="italic" lengthAdjust="spacing" textLength="48.3978" x="104.2104" y="31.9659">Iterable</text><text fill="#000000" font-family="sans-serif" font-size="10" font-style="italic" lengthAdjust="spacing" textLength="41.01" x="107.9043" y="46.7579">java.lang</text><rect fill="#FFFFFF" height="18.3441" style="stroke:#181818;stroke-width:1;stroke-dasharray:2,2;" width="58.9884" x="168.553" y="9"/><text fill="#000000" font-family="sans-serif" font-size="12" font-style="italic" lengthAdjust="spacing" textLength="56.9884" x="169.553" y="22.8281">Bancarella</text><line style="stroke:#181818;stroke-width:0.5;" x1="66.5" x2="223.5415" y1="54.6879" y2="54.6879"/><ellipse cx="76.5" cy="69.7219" fill="#84BE84" rx="3" ry="3" style="stroke:#038048;stroke-width:1;"/><text fill="#000000" font-family="sans-serif" font-size="14" font-style="italic" lengthAdjust="spacing" textLength="133.0415" x="85.5" y="73.6538">iterator(): Iterator&lt;T&gt;</text></a></g><g class="link" data-entity-1="java.lang.Iterable" data-entity-2="it.unimi.di.prog2.temisvolti.bancarelle.Acquisto" data-uid="lnk4" id="link_java.lang.Iterable_it.unimi.di.prog2.temisvolti.bancarelle.Acquisto"><polygon fill="none" points="145,82.1485,139,100.1485,151,100.1485,145,82.1485" style="stroke:#181818;stroke-width:1;"/><path d="M145,100.1485 C145,110.6726 145,104.9286 145,117.8825" fill="none" style="stroke:#181818;stroke-width:1;stroke-dasharray:7,7;"/></g><g class="footer" data-source-line="38"><text fill="#888888" font-family="sans-serif" font-size="10" lengthAdjust="spacing" textLength="2.6" x="140.2" y="371.69">&#160;</text><a href="https://github.com/talsma-ict/umldoclet" target="_top" title="https://github.com/talsma-ict/umldoclet" xlink:actuate="onRequest" xlink:href="https://github.com/talsma-ict/umldoclet" xlink:show="new" xlink:title="https://github.com/talsma-ict/umldoclet" xlink:type="simple"><text fill="#888888" font-family="sans-serif" font-size="10" lengthAdjust="spacing" textLength="76.7199" x="103.14" y="385.31">UMLDoclet 2.2.3</text></a></g><!--SRC=[bLJRKjim47tdAxRqeM58PCSX53AKJaexb4wOwK1uWZmezkAebIKZhMaJoh_qN_fZbUKaTkXbMZyazbxEsTLPBG302pZH-To8T4P06cWcB5oTZu2h159KQ3XX0YBZALgOejGgjLKW0YzefWteM_yLQsFGvbebGgNmWTzpiBemCLgsjGMUQhn2_y9j0tqwBurlTIoHe7MoqoWf2hlxdIYC-Z3cqcOSpax6R8bMvqGiOZrms5B4gAo3B5I2nfSrp7di_aQLfmttQApGokM4IvoorLWhua9PoBaXMxRqKN95PQrTLlApbz0QNeusQmiFVMrj61h5YmGkz5snRlTPRdZgAfPyhWi2co5nnIkVTKKhdhdZuZ5UeYFbv4vIQONUFnC90cOvpU5Me4piKwi3csbdzlPOScjX-yYA1GwwUyV3-AuGblIDMfh2Oq6iK28JB14iDpgD664cxBsM9DYKgvWRb1AtmGdpZx5iHGFNrwjNDgDCJYRmuEigdzrKw9WJQQa7SBf-N_ix2ThOY8MJ10TmplEZDoi6teOpHPYYEQx3SuEBXOCIYchZNU6q4lJZ-wPzTrLMgoRUgRqyJKMXKj5oEMseQNS6SAz5KWTMdAsT9-XhrhzuDb0tOWIX5xrCFbk-DtglMdwi17Q9Q6xTg3H4zZbJYGsHFxaxnzpOfbx6zHTRXJRXdMWpejmEWY3HiMNQS7ULMAop05LGvleVYq7Kzn41puKtkH5mLXzHeWShTA_zQs4x-DLP59Ulo1IuCGmFV6h94T7Z7_eVRxJzQmTmz8sn_nxG2kt8qbnYFKgtMZlKHdNbytwUena9zVd4pOg1vmU_zrwLwqKAXMwZnPyLkkiNhYCVAxgWmRVakb7rgQU2PiNK7pZvrTOHCGL59fDgfptPRfF9SbkThjTckNewtR0JHkDkVz3l3Ng7h7yGzgAzQ7zlDum6ONZzhZ0wn-12PpZv2G00]--></g></svg>