<svg xmlns="http://www.w3.org/2000/svg" xmlns:xlink="http://www.w3.org/1999/xlink" contentStyleType="text/css" data-diagram-type="CLASS" height="236px" preserveAspectRatio="none" style="width:336px;height:236px;background:#FFFFFF;" version="1.1" viewBox="0 0 336 236" width="336px" zoomAndPan="magnify"><defs/><g><!--class it.unimi.di.prog2.temisvolti.bancarelle.CompratoreMinimoUnitario--><g class="entity" data-entity="it.unimi.di.prog2.temisvolti.bancarelle.CompratoreMinimoUnitario" data-source-line="13" data-uid="ent0002" id="entity_it.unimi.di.prog2.temisvolti.bancarelle.CompratoreMinimoUnitario"><a href="CompratoreMinimoUnitario.html" target="_top" title="CompratoreMinimoUnitario.html" xlink:actuate="onRequest" xlink:href="CompratoreMinimoUnitario.html" xlink:show="new" xlink:title="CompratoreMinimoUnitario.html" xlink:type="simple"><rect fill="#F1F1F1" height="88.8237" rx="2.5" ry="2.5" style="stroke:#181818;stroke-width:0.5;" width="323.2469" x="6" y="118"/><ellipse cx="71.7438" cy="139.344" fill="#ADD1B2" rx="11" ry="11" style="stroke:#181818;stroke-width:1;"/><path d="M74.7125,144.9846 Q74.1344,145.2815 73.4938,145.4221 Q72.8531,145.5783 72.15,145.5783 Q69.65,145.5783 68.3219,143.9377 Q67.0094,142.2815 67.0094,139.1565 Q67.0094,136.0315 68.3219,134.3752 Q69.65,132.719 72.15,132.719 Q72.8531,132.719 73.4938,132.8752 Q74.15,133.0315 74.7125,133.3283 L74.7125,136.0471 Q74.0875,135.469 73.4938,135.2033 Q72.9,134.9221 72.275,134.9221 Q70.9313,134.9221 70.2438,136.0002 Q69.5563,137.0627 69.5563,139.1565 Q69.5563,141.2502 70.2438,142.3283 Q70.9313,143.3908 72.275,143.3908 Q72.9,143.3908 73.4938,143.1252 Q74.0875,142.844 74.7125,142.2658 L74.7125,144.9846 Z " fill="#000000"/><text fill="#000000" font-family="sans-serif" font-size="14" lengthAdjust="spacing" textLength="183.2593" x="92.2438" y="137.9659">CompratoreMinimoUnitario</text><text fill="#000000" font-family="sans-serif" font-size="10" lengthAdjust="spacing" textLength="178.1799" x="94.7835" y="152.7579">it.unimi.di.prog2.temisvolti.bancarelle</text><line style="stroke:#181818;stroke-width:0.5;" x1="7" x2="328.2469" y1="160.6879" y2="160.6879"/><ellipse cx="17" cy="175.7219" fill="#84BE84" rx="3" ry="3" style="stroke:#038048;stroke-width:1;"/><text fill="#000000" font-family="sans-serif" font-size="14" lengthAdjust="spacing" textLength="297.2469" x="26" y="179.6538">CompratoreMinimoUnitario(Set&lt;Bancarella&gt;)</text><ellipse cx="17" cy="194.7898" fill="#84BE84" rx="3" ry="3" style="stroke:#038048;stroke-width:1;"/><text fill="#000000" font-family="sans-serif" font-size="14" lengthAdjust="spacing" textLength="215.3052" x="26" y="198.7218">compra(int, Giocattolo): Acquisto</text></a></g><!--class it.unimi.di.prog2.temisvolti.bancarelle.AbstractCompratore--><g class="entity" data-entity="it.unimi.di.prog2.temisvolti.bancarelle.AbstractCompratore" data-source-line="18" data-uid="ent0003" id="entity_it.unimi.di.prog2.temisvolti.bancarelle.AbstractCompratore"><a href="AbstractCompratore.html" target="_top" title="AbstractCompratore.html" xlink:actuate="onRequest" xlink:href="AbstractCompratore.html" xlink:show="new" xlink:title="AbstractCompratore.html" xlink:type="simple"><rect fill="#F1F1F1" height="69.7558" rx="2.5" ry="2.5" style="stroke:#181818;stroke-width:0.5;" width="229.6012" x="52.5" y="12"/><ellipse cx="80.5551" cy="33.344" fill="#A9DCDF" rx="11" ry="11" style="stroke:#181818;stroke-width:1;"/><path d="M80.6645,28.6877 L79.5083,33.7658 L81.8364,33.7658 L80.6645,28.6877 Z M79.1801,26.4533 L82.1645,26.4533 L85.5239,38.844 L83.0708,38.844 L82.3051,35.7815 L79.0239,35.7815 L78.2739,38.844 L75.8364,38.844 L79.1801,26.4533 Z " fill="#000000"/><text fill="#000000" font-family="sans-serif" font-size="14" font-style="italic" lengthAdjust="spacing" textLength="126.2515" x="118.6254" y="31.9659">AbstractCompratore</text><text fill="#000000" font-family="sans-serif" font-size="10" font-style="italic" lengthAdjust="spacing" textLength="168.5898" x="97.4563" y="46.7579">it.unimi.di.prog2.temisvolti.bancarelle</text><line style="stroke:#181818;stroke-width:0.5;" x1="53.5" x2="281.1012" y1="54.6879" y2="54.6879"/><ellipse cx="63.5" cy="69.7219" fill="#84BE84" rx="3" ry="3" style="stroke:#038048;stroke-width:1;"/><text fill="#000000" font-family="sans-serif" font-size="14" font-style="italic" lengthAdjust="spacing" textLength="203.6012" x="72.5" y="73.6538">compra(int, Giocattolo): Acquisto</text></a></g><g class="link" data-entity-1="it.unimi.di.prog2.temisvolti.bancarelle.AbstractCompratore" data-entity-2="it.unimi.di.prog2.temisvolti.bancarelle.CompratoreMinimoUnitario" data-uid="lnk4" id="link_it.unimi.di.prog2.temisvolti.bancarelle.AbstractCompratore_it.unimi.di.prog2.temisvolti.bancarelle.CompratoreMinimoUnitario"><polygon fill="none" points="167.5,82.0537,161.5,100.0537,173.5,100.0537,167.5,82.0537" style="stroke:#181818;stroke-width:1;"/><path d="M167.5,100.0537 C167.5,111.2849 167.5,105.9359 167.5,117.7854" fill="none" style="stroke:#181818;stroke-width:1;"/></g><g class="footer" data-source-line="30"><text fill="#888888" font-family="sans-serif" font-size="10" lengthAdjust="spacing" textLength="2.6" x="162.7" y="211.69">&#160;</text><a href="https://github.com/talsma-ict/umldoclet" target="_top" title="https://github.com/talsma-ict/umldoclet" xlink:actuate="onRequest" xlink:href="https://github.com/talsma-ict/umldoclet" xlink:show="new" xlink:title="https://github.com/talsma-ict/umldoclet" xlink:type="simple"><text fill="#888888" font-family="sans-serif" font-size="10" lengthAdjust="spacing" textLength="76.7199" x="125.64" y="225.31">UMLDoclet 2.2.3</text></a></g><!--SRC=[jLJTJzim47_dhxYnXnL1tJHGjbPLfQwRsAOYJL2UIX-kpf5OE7QmBw2EyR_FIKlBw90seUKbodtzFXmV0C0x6DbYuLIQCR05pfI7YzCne4aW9KCEcH9GEQRaOKxQcjGl2mcmvCmwi5VrbxJEaI-iIPH9uHlU8dXREabUxEn03JLvd7w7_idq-Q8AVh9I4qDZjFU4KXorZvjn57TWWjhd25z74x6Qjkc9HImE8SpMIfBnOMHf4d8rhM61Chp6oym1t9BpofhG4wtcL5AbDOpAU2ZGiQyaVTTekEBQ5XM-U0-DuVduTsvHj-Ps04Ddi4pWpDwKQxbl2eTfOAnnOKi6dnEZmMNE1z86ys0NIZgd08eSd3JMK9tFL490US4Bk5Aa4_yy6ePbDeJhkDJeFUpslVf1lVRHO6JpeXv8fyget5uOnUYKlJIhacYWM9GXfKIYHE5i6WkcNFbRgrc9EHg9ZhIcNGW7zPUruYLOc4vVIecCSpsRmNsjethsNofjd1FtFpwYuM1lqoBhbeOoV00doafajjhkzM0eRqhbsTQb3qkpSExPeUGjruQhn8R0V_Ph6p0ujHtSzkZ-KSF3Fsf_1RF-psRprN_2aaNVyqBJO2tdobeEbtMZhtg-B0foOsMkHq6EWxSV_fozgEwvLeR2Qf7NXiA9HklAXoLSwmdU2klIJASPS-5xhLQgE2ld8XZPudh7D9NaLfdhPBbSdgsPsMorDaxM-wlQ0Srsr8pYIRlJwnps3hkYSnntk-quEjgFubuKJJ-NpXRKEhCvpNu1]--></g></svg>