<svg xmlns="http://www.w3.org/2000/svg" xmlns:xlink="http://www.w3.org/1999/xlink" contentStyleType="text/css" data-diagram-type="CLASS" height="399px" preserveAspectRatio="none" style="width:389px;height:399px;background:#FFFFFF;" version="1.1" viewBox="0 0 389 399" width="389px" zoomAndPan="magnify"><defs/><g><!--class it.unimi.di.prog2.temisvolti.piastrelle.Pavimentazione--><g class="entity" data-entity="it.unimi.di.prog2.temisvolti.piastrelle.Pavimentazione" data-source-line="13" data-uid="ent0002" id="entity_it.unimi.di.prog2.temisvolti.piastrelle.Pavimentazione"><a href="Pavimentazione.html" target="_top" title="Pavimentazione.html" xlink:actuate="onRequest" xlink:href="Pavimentazione.html" xlink:show="new" xlink:title="Pavimentazione.html" xlink:type="simple"><rect fill="#F1F1F1" height="154.0275" rx="2.5" ry="2.5" style="stroke:#181818;stroke-width:0.5;" width="305.8029" x="47.5" y="137"/><ellipse cx="109.8665" cy="158.344" fill="#ADD1B2" rx="11" ry="11" style="stroke:#181818;stroke-width:1;"/><path d="M112.8353,163.9846 Q112.2571,164.2815 111.6165,164.4221 Q110.9759,164.5783 110.2728,164.5783 Q107.7728,164.5783 106.4446,162.9377 Q105.1321,161.2815 105.1321,158.1565 Q105.1321,155.0315 106.4446,153.3752 Q107.7728,151.719 110.2728,151.719 Q110.9759,151.719 111.6165,151.8752 Q112.2728,152.0315 112.8353,152.3283 L112.8353,155.0471 Q112.2103,154.469 111.6165,154.2033 Q111.0228,153.9221 110.3978,153.9221 Q109.054,153.9221 108.3665,155.0002 Q107.679,156.0627 107.679,158.1565 Q107.679,160.2502 108.3665,161.3283 Q109.054,162.3908 110.3978,162.3908 Q111.0228,162.3908 111.6165,162.1252 Q112.2103,161.844 112.8353,161.2658 L112.8353,163.9846 Z " fill="#000000"/><text fill="#000000" font-family="sans-serif" font-size="14" lengthAdjust="spacing" textLength="104.8036" x="164.2496" y="156.9659">Pavimentazione</text><text fill="#000000" font-family="sans-serif" font-size="10" lengthAdjust="spacing" textLength="172.5699" x="130.3665" y="171.7579">it.unimi.di.prog2.temisvolti.piastrelle</text><line style="stroke:#181818;stroke-width:0.5;" x1="48.5" x2="352.3029" y1="179.6879" y2="179.6879"/><rect fill="none" height="6" style="stroke:#C82930;stroke-width:1;" width="6" x="55.5" y="191.7219"/><text fill="#000000" font-family="sans-serif" font-size="14" lengthAdjust="spacing" textLength="253.217" x="67.5" y="198.6538">componenti: Collection&lt;Componente&gt;</text><line style="stroke:#181818;stroke-width:0.5;" x1="48.5" x2="352.3029" y1="206.7558" y2="206.7558"/><ellipse cx="58.5" cy="221.7898" fill="#84BE84" rx="3" ry="3" style="stroke:#038048;stroke-width:1;"/><text fill="#000000" font-family="sans-serif" font-size="14" lengthAdjust="spacing" textLength="279.8029" x="67.5" y="225.7218">Pavimentazione(Collection&lt;Componente&gt;)</text><ellipse cx="58.5" cy="240.8577" fill="#84BE84" rx="3" ry="3" style="stroke:#038048;stroke-width:1;"/><text fill="#000000" font-family="sans-serif" font-size="14" lengthAdjust="spacing" textLength="68.5297" x="67.5" y="244.7897">costo(): int</text><ellipse cx="58.5" cy="259.9256" fill="#84BE84" rx="3" ry="3" style="stroke:#038048;stroke-width:1;"/><text fill="#000000" font-family="sans-serif" font-size="14" lengthAdjust="spacing" textLength="97.4116" x="67.5" y="263.8576">superficie(): int</text><ellipse cx="58.5" cy="278.9935" fill="#84BE84" rx="3" ry="3" style="stroke:#038048;stroke-width:1;"/><text fill="#000000" font-family="sans-serif" font-size="14" lengthAdjust="spacing" textLength="217.5872" x="67.5" y="282.9255">iterator(): Iterator&lt;Componente&gt;</text></a></g><!--class it.unimi.di.prog2.temisvolti.piastrelle.Rivestimento--><g class="entity" data-entity="it.unimi.di.prog2.temisvolti.piastrelle.Rivestimento" data-source-line="21" data-uid="ent0003" id="entity_it.unimi.di.prog2.temisvolti.piastrelle.Rivestimento"><a href="Rivestimento.html" target="_top" title="Rivestimento.html" xlink:actuate="onRequest" xlink:href="Rivestimento.html" xlink:show="new" xlink:title="Rivestimento.html" xlink:type="simple"><rect fill="#F1F1F1" height="88.8237" rx="2.5" ry="2.5" style="stroke:#181818;stroke-width:0.5;" width="194.8098" x="6" y="12"/><ellipse cx="21" cy="33.344" fill="#B4A7E5" rx="11" ry="11" style="stroke:#181818;stroke-width:1;"/><path d="M16.9219,29.1096 L16.9219,26.9533 L24.3125,26.9533 L24.3125,29.1096 L21.8438,29.1096 L21.8438,37.1877 L24.3125,37.1877 L24.3125,39.344 L16.9219,39.344 L16.9219,37.1877 L19.3906,37.1877 L19.3906,29.1096 L16.9219,29.1096 Z " fill="#000000"/><text fill="#000000" font-family="sans-serif" font-size="14" font-style="italic" lengthAdjust="spacing" textLength="79.3377" x="76.7361" y="31.9659">Rivestimento</text><text fill="#000000" font-family="sans-serif" font-size="10" font-style="italic" lengthAdjust="spacing" textLength="162.8098" x="35" y="46.7579">it.unimi.di.prog2.temisvolti.piastrelle</text><line style="stroke:#181818;stroke-width:0.5;" x1="7" x2="199.8098" y1="54.6879" y2="54.6879"/><ellipse cx="17" cy="69.7219" fill="#84BE84" rx="3" ry="3" style="stroke:#038048;stroke-width:1;"/><text fill="#000000" font-family="sans-serif" font-size="14" font-style="italic" lengthAdjust="spacing" textLength="64.5117" x="26" y="73.6538">costo(): int</text><ellipse cx="17" cy="88.7898" fill="#84BE84" rx="3" ry="3" style="stroke:#038048;stroke-width:1;"/><text fill="#000000" font-family="sans-serif" font-size="14" font-style="italic" lengthAdjust="spacing" textLength="91.5316" x="26" y="92.7218">superficie(): int</text></a></g><!--class java.lang.Iterable--><g class="entity" data-entity="java.lang.Iterable" data-source-line="25" data-uid="ent0004" id="entity_java.lang.Iterable"><a href="https://docs.oracle.com/en/java/javase/25/docs/api/java.base/java/lang/Iterable.html?is-external=true" target="_top" title="https://docs.oracle.com/en/java/javase/25/docs/api/java.base/java/lang/Iterable.html?is-external=true" xlink:actuate="onRequest" xlink:href="https://docs.oracle.com/en/java/javase/25/docs/api/java.base/java/lang/Iterable.html?is-external=true" xlink:show="new" xlink:title="https://docs.oracle.com/en/java/javase/25/docs/api/java.base/java/lang/Iterable.html?is-external=true" xlink:type="simple"><rect fill="#F1F1F1" height="69.7558" rx="2.5" ry="2.5" style="stroke:#181818;stroke-width:0.5;" width="159.0415" x="219" y="21.5"/><ellipse cx="237.0524" cy="42.844" fill="#B4A7E5" rx="11" ry="11" style="stroke:#181818;stroke-width:1;"/><path d="M232.9743,38.6096 L232.9743,36.4533 L240.3649,36.4533 L240.3649,38.6096 L237.8962,38.6096 L237.8962,46.6877 L240.3649,46.6877 L240.3649,48.844 L232.9743,48.844 L232.9743,46.6877 L235.4431,46.6877 L235.4431,38.6096 L232.9743,38.6096 Z " fill="#000000"/><text fill="#000000" font-family="sans-serif" font-size="14" font-style="italic" lengthAdjust="spacing" textLength="48.3978" x="251.7308" y="41.4659">Iterable</text><text fill="#000000" font-family="sans-serif" font-size="10" font-style="italic" lengthAdjust="spacing" textLength="41.01" x="255.4247" y="56.2579">java.lang</text><rect fill="#FFFFFF" height="18.3441" style="stroke:#181818;stroke-width:1;stroke-dasharray:2,2;" width="69.8604" x="311.181" y="18.5"/><text fill="#000000" font-family="sans-serif" font-size="12" font-style="italic" lengthAdjust="spacing" textLength="67.8604" x="312.181" y="32.3281">Componente</text><line style="stroke:#181818;stroke-width:0.5;" x1="220" x2="377.0415" y1="64.1879" y2="64.1879"/><ellipse cx="230" cy="79.2219" fill="#84BE84" rx="3" ry="3" style="stroke:#038048;stroke-width:1;"/><text fill="#000000" font-family="sans-serif" font-size="14" font-style="italic" lengthAdjust="spacing" textLength="133.0415" x="239" y="83.1538">iterator(): Iterator&lt;T&gt;</text></a></g><!--class it.unimi.di.prog2.temisvolti.piastrelle.Pavimentazione.Componente--><g class="entity" data-entity="it.unimi.di.prog2.temisvolti.piastrelle.Pavimentazione.Componente" data-source-line="28" data-uid="ent0005" id="entity_it.unimi.di.prog2.temisvolti.piastrelle.Pavimentazione.Componente"><a href="Pavimentazione.Componente.html" target="_top" title="Pavimentazione.Componente.html" xlink:actuate="onRequest" xlink:href="Pavimentazione.Componente.html" xlink:show="new" xlink:title="Pavimentazione.Componente.html" xlink:type="simple"><rect fill="#F1F1F1" height="42.6879" rx="2.5" ry="2.5" style="stroke:#181818;stroke-width:0.5;" width="226.1932" x="87.5" y="327"/><ellipse cx="102.5" cy="348.344" fill="#ADD1B2" rx="11" ry="11" style="stroke:#181818;stroke-width:1;"/><path d="M105.4688,353.9846 Q104.8906,354.2815 104.25,354.4221 Q103.6094,354.5783 102.9063,354.5783 Q100.4063,354.5783 99.0781,352.9377 Q97.7656,351.2815 97.7656,348.1565 Q97.7656,345.0315 99.0781,343.3752 Q100.4063,341.719 102.9063,341.719 Q103.6094,341.719 104.25,341.8752 Q104.9063,342.0315 105.4688,342.3283 L105.4688,345.0471 Q104.8438,344.469 104.25,344.2033 Q103.6563,343.9221 103.0313,343.9221 Q101.6875,343.9221 101,345.0002 Q100.3125,346.0627 100.3125,348.1565 Q100.3125,350.2502 101,351.3283 Q101.6875,352.3908 103.0313,352.3908 Q103.6563,352.3908 104.25,352.1252 Q104.8438,351.844 105.4688,351.2658 L105.4688,353.9846 Z " fill="#000000"/><text fill="#000000" font-family="sans-serif" font-size="14" lengthAdjust="spacing" textLength="194.1932" x="116.5" y="346.9659">Pavimentazione.Componente</text><text fill="#000000" font-family="sans-serif" font-size="10" lengthAdjust="spacing" textLength="172.5699" x="127.3117" y="361.7579">it.unimi.di.prog2.temisvolti.piastrelle</text></a></g><g class="link" data-entity-1="it.unimi.di.prog2.temisvolti.piastrelle.Rivestimento" data-entity-2="it.unimi.di.prog2.temisvolti.piastrelle.Pavimentazione" data-uid="lnk6" id="link_it.unimi.di.prog2.temisvolti.piastrelle.Rivestimento_it.unimi.di.prog2.temisvolti.piastrelle.Pavimentazione"><polygon fill="none" points="130.778,101.2292,135.214,119.6771,145.3955,113.3259,130.778,101.2292" style="stroke:#181818;stroke-width:1;"/><path d="M140.3048,116.5015 C147.2532,127.6404 145.3987,124.6676 153.0367,136.912" fill="none" style="stroke:#181818;stroke-width:1;stroke-dasharray:7,7;"/></g><g class="link" data-entity-1="java.lang.Iterable" data-entity-2="it.unimi.di.prog2.temisvolti.piastrelle.Pavimentazione" data-uid="lnk7" id="link_java.lang.Iterable_it.unimi.di.prog2.temisvolti.piastrelle.Pavimentazione"><polygon fill="none" points="276.9935,91.6251,262.3203,103.6542,272.4724,110.0523,276.9935,91.6251" style="stroke:#181818;stroke-width:1;"/><path d="M267.3964,106.8532 C258.9448,120.2636 258.477,121.0059 248.4694,136.8853" fill="none" style="stroke:#181818;stroke-width:1;stroke-dasharray:7,7;"/></g><g class="link" data-entity-1="it.unimi.di.prog2.temisvolti.piastrelle.Pavimentazione" data-entity-2="it.unimi.di.prog2.temisvolti.piastrelle.Pavimentazione.Componente" data-uid="lnk8" id="link_it.unimi.di.prog2.temisvolti.piastrelle.Pavimentazione_it.unimi.di.prog2.temisvolti.piastrelle.Pavimentazione.Componente"><ellipse cx="200.5" cy="299.3081" fill="#FFFFFF" rx="8" ry="8" style="stroke:#181818;stroke-width:1;"/><line style="stroke:#181818;stroke-width:1;" x1="200.5" x2="200.5" y1="307.3081" y2="291.3081"/><line style="stroke:#181818;stroke-width:1;" x1="192.5" x2="208.5" y1="299.3081" y2="299.3081"/><path d="M200.5,307.3081 C200.5,320.4242 200.5,317.0018 200.5,326.9196" fill="none" style="stroke:#181818;stroke-width:1;"/></g><g class="footer" data-source-line="40"><text fill="#888888" font-family="sans-serif" font-size="10" lengthAdjust="spacing" textLength="2.6" x="187.2" y="374.69">&#160;</text><a href="https://github.com/talsma-ict/umldoclet" target="_top" title="https://github.com/talsma-ict/umldoclet" xlink:actuate="onRequest" xlink:href="https://github.com/talsma-ict/umldoclet" xlink:show="new" xlink:title="https://github.com/talsma-ict/umldoclet" xlink:type="simple"><text fill="#888888" font-family="sans-serif" font-size="10" lengthAdjust="spacing" textLength="76.7199" x="150.14" y="388.31">UMLDoclet 2.2.3</text></a></g><!--SRC=[lLNVKzD047xthrZnGHZe9Gsss4wjmrH7SUeC0-K9UBWcs-JaSXTpbsf1_dStb_v8QN4S6Er3s-pkVVljbzrR083NCD3PB1TnOi5gi8amSF5r25n54AF2d5kCGAGyHWDZb5h5fWf4u8LDT0vwufv2dUTeCgqYeMBumgSSZ2xo40rxyG9Sgj42_GStDVJnh3H-qA542xk3lHgbm6-s6u4Vj634fKavd0n6R8wsEXEmW1q2OKiHeZ84MQW8SqVhEECX_Gmhpm5CCJT2AphZpt7AKaEjB1VAGCPpQygIJYLNjkJQP6L-TWIxn-V3TMv-nt4xWEDSyIA2C_szM9RxCijvJ8mbd-d2WadHSiKhdo7IYgSa5m_n72afjwIaqWgTFn4H0gQPdS54e8pCGok19PhCpXvARWpiz8ounMxpJV-KJqMALD0j5OfNQkxm-yAoGebKi4YmBDTnm2ocmaorj6GGtDWSfSGTeDVpbx5iFHbSNguRM69JUNqDTuvf-Mc4EgKkeGZH9JK98xGKsHiipDXVnkwlW-rk3zzRnOVQMBsxrmMXxCfgYWppYGW5RhY4HQTzwJYP_z-WSb_fJ0S9XjvOJUipCKLZ7KVzZvMkfoATwu-RAj_nCPtZeRr_H9Hwm7PzxXyjsWarblNM-aRppcXaObVIyeajGkkQ4ld4sinqFI_IeM6QQ51zr1SUAgyywxuCUa7BHNWy4yx4ngNLHPJetWBTrVzUc0R-98lYyftD2tnKaAqlVTIlLVtdaMAhOlxhTDNoRWxQoZVlXddJFgMxUhyOUo97btJp_JyRyedtqNwZyNonAoLxnivaxNAQQ4t5rLgi_7oUqIWDXRgXgufkz5TljtilolqaXK9QYU6DGcesVnbPjM3Fg-MRvxfIgz69XKsAiPiQwtPZGuJMAr8PLKlnmNgaVgZMtQVbtYrtLwFfD_nWr6nrMuVTmmvhTzf7xKudQEtxGTVtBpyMkSxGEzCfNly6]--></g></svg>