<svg xmlns="http://www.w3.org/2000/svg" xmlns:xlink="http://www.w3.org/1999/xlink" contentStyleType="text/css" data-diagram-type="CLASS" height="236px" preserveAspectRatio="none" style="width:217px;height:236px;background:#FFFFFF;" version="1.1" viewBox="0 0 217 236" width="217px" zoomAndPan="magnify"><defs/><g><!--class it.unimi.di.prog2.temisvolti.piastrelle.PiastrellaQuadrata--><g class="entity" data-entity="it.unimi.di.prog2.temisvolti.piastrelle.PiastrellaQuadrata" data-source-line="13" data-uid="ent0002" id="entity_it.unimi.di.prog2.temisvolti.piastrelle.PiastrellaQuadrata"><a href="PiastrellaQuadrata.html" target="_top" title="PiastrellaQuadrata.html" xlink:actuate="onRequest" xlink:href="PiastrellaQuadrata.html" xlink:show="new" xlink:title="PiastrellaQuadrata.html" xlink:type="simple"><rect fill="#F1F1F1" height="115.8917" rx="2.5" ry="2.5" style="stroke:#181818;stroke-width:0.5;" width="204.5699" x="6" y="91"/><ellipse cx="21" cy="112.344" fill="#ADD1B2" rx="11" ry="11" style="stroke:#181818;stroke-width:1;"/><path d="M23.9688,117.9846 Q23.3906,118.2815 22.75,118.4221 Q22.1094,118.5783 21.4063,118.5783 Q18.9063,118.5783 17.5781,116.9377 Q16.2656,115.2815 16.2656,112.1565 Q16.2656,109.0315 17.5781,107.3752 Q18.9063,105.719 21.4063,105.719 Q22.1094,105.719 22.75,105.8752 Q23.4063,106.0315 23.9688,106.3283 L23.9688,109.0471 Q23.3438,108.469 22.75,108.2033 Q22.1563,107.9221 21.5313,107.9221 Q20.1875,107.9221 19.5,109.0002 Q18.8125,110.0627 18.8125,112.1565 Q18.8125,114.2502 19.5,115.3283 Q20.1875,116.3908 21.5313,116.3908 Q22.1563,116.3908 22.75,116.1252 Q23.3438,115.844 23.9688,115.2658 L23.9688,117.9846 Z " fill="#000000"/><text fill="#000000" font-family="sans-serif" font-size="14" lengthAdjust="spacing" textLength="123.0456" x="59.7622" y="110.9659">PiastrellaQuadrata</text><text fill="#000000" font-family="sans-serif" font-size="10" lengthAdjust="spacing" textLength="172.5699" x="35" y="125.7579">it.unimi.di.prog2.temisvolti.piastrelle</text><line style="stroke:#181818;stroke-width:0.5;" x1="7" x2="209.5699" y1="133.6879" y2="133.6879"/><ellipse cx="17" cy="148.7219" fill="none" rx="3" ry="3" style="stroke:#038048;stroke-width:1;"/><text fill="#000000" font-family="sans-serif" font-size="14" lengthAdjust="spacing" textLength="49.6998" x="26" y="152.6538">lato: int</text><line style="stroke:#181818;stroke-width:0.5;" x1="7" x2="209.5699" y1="160.7558" y2="160.7558"/><ellipse cx="17" cy="175.7898" fill="#84BE84" rx="3" ry="3" style="stroke:#038048;stroke-width:1;"/><text fill="#000000" font-family="sans-serif" font-size="14" lengthAdjust="spacing" textLength="173.4734" x="26" y="179.7218">PiastrellaQuadrata(int, int)</text><ellipse cx="17" cy="194.8577" fill="#84BE84" rx="3" ry="3" style="stroke:#038048;stroke-width:1;"/><text fill="#000000" font-family="sans-serif" font-size="14" lengthAdjust="spacing" textLength="97.4116" x="26" y="198.7897">superficie(): int</text></a></g><!--class it.unimi.di.prog2.temisvolti.piastrelle.Piastrella--><g class="entity" data-entity="it.unimi.di.prog2.temisvolti.piastrelle.Piastrella" data-source-line="19" data-uid="ent0003" id="entity_it.unimi.di.prog2.temisvolti.piastrelle.Piastrella"><a href="Piastrella.html" target="_top" title="Piastrella.html" xlink:actuate="onRequest" xlink:href="Piastrella.html" xlink:show="new" xlink:title="Piastrella.html" xlink:type="simple"><rect fill="#F1F1F1" height="42.6879" rx="2.5" ry="2.5" style="stroke:#181818;stroke-width:0.5;" width="194.8098" x="11" y="12"/><ellipse cx="26" cy="33.344" fill="#A9DCDF" rx="11" ry="11" style="stroke:#181818;stroke-width:1;"/><path d="M26.1094,28.6877 L24.9531,33.7658 L27.2813,33.7658 L26.1094,28.6877 Z M24.625,26.4533 L27.6094,26.4533 L30.9688,38.844 L28.5156,38.844 L27.75,35.7815 L24.4688,35.7815 L23.7188,38.844 L21.2813,38.844 L24.625,26.4533 Z " fill="#000000"/><text fill="#000000" font-family="sans-serif" font-size="14" font-style="italic" lengthAdjust="spacing" textLength="57.9318" x="92.439" y="31.9659">Piastrella</text><text fill="#000000" font-family="sans-serif" font-size="10" font-style="italic" lengthAdjust="spacing" textLength="162.8098" x="40" y="46.7579">it.unimi.di.prog2.temisvolti.piastrelle</text></a></g><g class="link" data-entity-1="it.unimi.di.prog2.temisvolti.piastrelle.Piastrella" data-entity-2="it.unimi.di.prog2.temisvolti.piastrelle.PiastrellaQuadrata" data-uid="lnk4" id="link_it.unimi.di.prog2.temisvolti.piastrelle.Piastrella_it.unimi.di.prog2.temisvolti.piastrelle.PiastrellaQuadrata"><polygon fill="none" points="108.5,55.054,102.5,73.054,114.5,73.054,108.5,55.054" style="stroke:#181818;stroke-width:1;"/><path d="M108.5,73.054 C108.5,83.1473 108.5,77.8625 108.5,90.62" fill="none" style="stroke:#181818;stroke-width:1;"/></g><g class="footer" data-source-line="29"><text fill="#888888" font-family="sans-serif" font-size="10" lengthAdjust="spacing" textLength="2.6" x="103.7" y="211.69">&#160;</text><a href="https://github.com/talsma-ict/umldoclet" target="_top" title="https://github.com/talsma-ict/umldoclet" xlink:actuate="onRequest" xlink:href="https://github.com/talsma-ict/umldoclet" xlink:show="new" xlink:title="https://github.com/talsma-ict/umldoclet" xlink:type="simple"><text fill="#888888" font-family="sans-serif" font-size="10" lengthAdjust="spacing" textLength="76.7199" x="66.64" y="225.31">UMLDoclet 2.2.3</text></a></g><!--SRC=[lLHDJzj04BtpAwRqq23mnd4AX0WXHMdL3wKIXN0A72RhYRrYlUlkZgdIbl_UjHsI05LLjLBtOda-thnvwsS0W5SmjkNIgIndO0kSAmzNdoQ09eMC33baIa4Lc967EMbhCjyM4c35kNLW5ysRjCwHBwr9bSdW8zuXU5ivILxix40pQlg0_XNz5lfyMGVVMAc9eJFUswAKnBsZA8cJGvYYzWN2X_5KhD0sFOb8H1y2jbQIZ0-GbKd9DRH69ShmcBIP0xWZvvKreITUuTIhIciObV5GecDVhtIkqN3DjIVg-U8OEgFBoMDkyKd3xG16pc2LmeNzKgtNVL4wp09ZZKjRCVY260ssEHz86oo2N2Zfai9GvA2aiOQQVAvI0YfANi92aKxzqsW0osq8Dt6fqNlOFVNg6mrxhy_E5Nfsf3L-hZ0Dq7XjLiduJB6eZ2gKI9KedSqImLGeVsSrXy139-r2kA8_h1NF1y9izZmeSYxqpGryRrZNPr-7lOUW36z2p_iw8NzG5-rjgdnLabiegQYpjm6uRmN1UK10oRzHvhyfyaY9bG8jox_0ElqHHVzmA-tSKyzBJMThBHVMSZ3BvbRgytuPz9qeSpksEdoPBmU_pbxLFjFAKB2sl3KKr8xNbVVjkExMlDMiQpERvSob7tQxcUAycWjfYout7e-Kv6vLwBGrznER1_LQsxvR_pzg3qQzE8gJQUzmUDWVza_4SRy_E4hwWzv-d0pZUFQsShQaxeKjwEOd]--></g></svg>