<svg xmlns="http://www.w3.org/2000/svg" xmlns:xlink="http://www.w3.org/1999/xlink" contentStyleType="text/css" data-diagram-type="CLASS" height="301px" preserveAspectRatio="none" style="width:295px;height:301px;background:#FFFFFF;" version="1.1" viewBox="0 0 295 301" width="295px" zoomAndPan="magnify"><defs/><g><!--class it.unimi.di.prog2.temisvolti.cambiavalute.Cassa--><g class="entity" data-entity="it.unimi.di.prog2.temisvolti.cambiavalute.Cassa" data-source-line="13" data-uid="ent0002" id="entity_it.unimi.di.prog2.temisvolti.cambiavalute.Cassa"><a href="Cassa.html" target="_top" title="Cassa.html" xlink:actuate="onRequest" xlink:href="Cassa.html" xlink:show="new" xlink:title="Cassa.html" xlink:type="simple"><rect fill="#F1F1F1" height="154.0275" rx="2.5" ry="2.5" style="stroke:#181818;stroke-width:0.5;" width="282.843" x="6" y="118"/><ellipse cx="47.4524" cy="139.344" fill="#ADD1B2" rx="11" ry="11" style="stroke:#181818;stroke-width:1;"/><path d="M50.4212,144.9846 Q49.8431,145.2815 49.2024,145.4221 Q48.5618,145.5783 47.8587,145.5783 Q45.3587,145.5783 44.0306,143.9377 Q42.7181,142.2815 42.7181,139.1565 Q42.7181,136.0315 44.0306,134.3752 Q45.3587,132.719 47.8587,132.719 Q48.5618,132.719 49.2024,132.8752 Q49.8587,133.0315 50.4212,133.3283 L50.4212,136.0471 Q49.7962,135.469 49.2024,135.2033 Q48.6087,134.9221 47.9837,134.9221 Q46.6399,134.9221 45.9524,136.0002 Q45.2649,137.0627 45.2649,139.1565 Q45.2649,141.2502 45.9524,142.3283 Q46.6399,143.3908 47.9837,143.3908 Q48.6087,143.3908 49.2024,143.1252 Q49.7962,142.844 50.4212,142.2658 L50.4212,144.9846 Z " fill="#000000"/><text fill="#000000" font-family="sans-serif" font-size="14" lengthAdjust="spacing" textLength="37.9679" x="144.3768" y="137.9659">Cassa</text><text fill="#000000" font-family="sans-serif" font-size="10" lengthAdjust="spacing" textLength="192.0599" x="67.3307" y="152.7579">it.unimi.di.prog2.temisvolti.cambiavalute</text><line style="stroke:#181818;stroke-width:0.5;" x1="7" x2="287.843" y1="160.6879" y2="160.6879"/><rect fill="none" height="6" style="stroke:#C82930;stroke-width:1;" width="6" x="14" y="172.7219"/><text fill="#000000" font-family="sans-serif" font-size="14" lengthAdjust="spacing" textLength="256.843" x="26" y="179.6538">valuta2importo: Map&lt;Valuta, Importo&gt;</text><line style="stroke:#181818;stroke-width:0.5;" x1="7" x2="287.843" y1="187.7558" y2="187.7558"/><ellipse cx="17" cy="202.7898" fill="#84BE84" rx="3" ry="3" style="stroke:#038048;stroke-width:1;"/><text fill="#000000" font-family="sans-serif" font-size="14" lengthAdjust="spacing" textLength="149.3795" x="26" y="206.7218">totale(Valuta): Importo</text><ellipse cx="17" cy="221.8577" fill="#84BE84" rx="3" ry="3" style="stroke:#038048;stroke-width:1;"/><text fill="#000000" font-family="sans-serif" font-size="14" lengthAdjust="spacing" textLength="133.1675" x="26" y="225.7897">versa(Importo): void</text><ellipse cx="17" cy="240.9256" fill="#84BE84" rx="3" ry="3" style="stroke:#038048;stroke-width:1;"/><text fill="#000000" font-family="sans-serif" font-size="14" lengthAdjust="spacing" textLength="146.5795" x="26" y="244.8576">preleva(Importo): void</text><ellipse cx="17" cy="259.9935" fill="#84BE84" rx="3" ry="3" style="stroke:#038048;stroke-width:1;"/><text fill="#000000" font-family="sans-serif" font-size="14" lengthAdjust="spacing" textLength="186.1713" x="26" y="263.9255">iterator(): Iterator&lt;Importo&gt;</text></a></g><!--class java.lang.Iterable--><g class="entity" data-entity="java.lang.Iterable" data-source-line="21" data-uid="ent0003" id="entity_java.lang.Iterable"><a href="https://docs.oracle.com/en/java/javase/25/docs/api/java.base/java/lang/Iterable.html?is-external=true" target="_top" title="https://docs.oracle.com/en/java/javase/25/docs/api/java.base/java/lang/Iterable.html?is-external=true" xlink:actuate="onRequest" xlink:href="https://docs.oracle.com/en/java/javase/25/docs/api/java.base/java/lang/Iterable.html?is-external=true" xlink:show="new" xlink:title="https://docs.oracle.com/en/java/javase/25/docs/api/java.base/java/lang/Iterable.html?is-external=true" xlink:type="simple"><rect fill="#F1F1F1" height="69.7558" rx="2.5" ry="2.5" style="stroke:#181818;stroke-width:0.5;" width="159.0415" x="68" y="12"/><ellipse cx="96.9659" cy="33.344" fill="#B4A7E5" rx="11" ry="11" style="stroke:#181818;stroke-width:1;"/><path d="M92.8878,29.1096 L92.8878,26.9533 L100.2784,26.9533 L100.2784,29.1096 L97.8097,29.1096 L97.8097,37.1877 L100.2784,37.1877 L100.2784,39.344 L92.8878,39.344 L92.8878,37.1877 L95.3565,37.1877 L95.3565,29.1096 L92.8878,29.1096 Z " fill="#000000"/><text fill="#000000" font-family="sans-serif" font-size="14" font-style="italic" lengthAdjust="spacing" textLength="48.3978" x="114.0694" y="31.9659">Iterable</text><text fill="#000000" font-family="sans-serif" font-size="10" font-style="italic" lengthAdjust="spacing" textLength="41.01" x="117.7634" y="46.7579">java.lang</text><rect fill="#FFFFFF" height="18.3441" style="stroke:#181818;stroke-width:1;stroke-dasharray:2,2;" width="45.6083" x="184.4332" y="9"/><text fill="#000000" font-family="sans-serif" font-size="12" font-style="italic" lengthAdjust="spacing" textLength="43.6083" x="185.4332" y="22.8281">Importo</text><line style="stroke:#181818;stroke-width:0.5;" x1="69" x2="226.0415" y1="54.6879" y2="54.6879"/><ellipse cx="79" cy="69.7219" fill="#84BE84" rx="3" ry="3" style="stroke:#038048;stroke-width:1;"/><text fill="#000000" font-family="sans-serif" font-size="14" font-style="italic" lengthAdjust="spacing" textLength="133.0415" x="88" y="73.6538">iterator(): Iterator&lt;T&gt;</text></a></g><g class="link" data-entity-1="java.lang.Iterable" data-entity-2="it.unimi.di.prog2.temisvolti.cambiavalute.Cassa" data-uid="lnk4" id="link_java.lang.Iterable_it.unimi.di.prog2.temisvolti.cambiavalute.Cassa"><polygon fill="none" points="147.5,82.2305,141.5,100.2305,153.5,100.2305,147.5,82.2305" style="stroke:#181818;stroke-width:1;"/><path d="M147.5,100.2305 C147.5,111.0188 147.5,105.3986 147.5,117.8998" fill="none" style="stroke:#181818;stroke-width:1;stroke-dasharray:7,7;"/></g><g class="footer" data-source-line="33"><text fill="#888888" font-family="sans-serif" font-size="10" lengthAdjust="spacing" textLength="2.6" x="142.7" y="276.69">&#160;</text><a href="https://github.com/talsma-ict/umldoclet" target="_top" title="https://github.com/talsma-ict/umldoclet" xlink:actuate="onRequest" xlink:href="https://github.com/talsma-ict/umldoclet" xlink:show="new" xlink:title="https://github.com/talsma-ict/umldoclet" xlink:type="simple"><text fill="#888888" font-family="sans-serif" font-size="10" lengthAdjust="spacing" textLength="76.7199" x="105.64" y="290.31">UMLDoclet 2.2.3</text></a></g><!--SRC=[bLHDSzCm4BttLopbG3fjPCTjW6P2cKvWe4mwmxGfbpQ7ZRrrH6N9IEj0AFtlo78-2vq17-9ez-djqzDw0G1UmC2KSolpAGCRuAbqS7K-1DGPvAJ98bC6ii2S74n86Psx1aY05K-D1NCRLgcnbbnfT2Pr3fzmXk1CPLDoOcS7GgdHalqxkWtsoRmElZEf8eRMO6z3KX9tNhQJEEd229Kh4Cu68x5WM-z9H28EmNChcP9sdhBI6TaWwxJ4rB-6JUO0PcITDDhlYHSyzL5JencbTb2YPLSVwRD2pRNMZgZhYrVGEhqSRckBZuEs0pYr6giCBiotQdNSPwN5t2jME3SLWok8KMEJSrwqniBRXIbTaY-Ax9tKHbF8JsL6G4N9SxYLf3BtEEh9fiQ7GpnLw1pizftyIRtEqSd0B_56BzRnYMHHQLb8aKbHMfCdWgcGRcOKIv5YCP7-ibJ5j0l-NluPBK8TkBuERp7bGet7S1yarKyxm32HHMaicnwSOzd_4c87SDO4JrReVJQCYbeDOA-tHAm1zSrXQn7sW9cHsJfRMb8qUpelcOB9hPfwyR-_fUAXSLDgdxtrzxBXQDWmKRHXwbVlWl0zaWVJLYknXAwulK5JvjBreYWpgHF6eczQaPeY8XtL6yEFeoZf1aI4fGmXCQcZ0L5JHqlgOFLRwThqmqSqgZTiAzho_XudZdqXVdZYvAEjC_yf7_g_XFZVNcZ8-exdYjOtUskC9zqGLpyVvoNPeTHt0wDyvpz__VViLVqTAwd9ZuxqJfFlytY5V6ZAHHlr5hLkzDhqNFAqcWI_ESoGjamvgWgLDSFZqHWPZnTZuSDgFjNVUBiJj-DarEdskeUzmsDnrErqugFuEDcFaruSNx-lh2afkZ05ZNy3]--></g></svg>